<svg xmlns="http://www.w3.org/2000/svg" width="1870.361" height="1774.998" viewBox="0 0 1870.361 1774.998">
  <g id="Group_71" data-name="Group 71" transform="translate(-861.941 -946.049)">
    <path id="Path_12" data-name="Path 12" d="M83.381,887.393V33.653C83.381,2.328,84.5,1.3,116.74,1.3c178.215,0,356.27,1.759,534.347-.434A781.084,781.084,0,0,1,959.353,63.858a880.861,880.861,0,0,1,503.434,541.179,741.966,741.966,0,0,1,44.234,284.435,1279.075,1279.075,0,0,1-12.384,169.967,904.8,904.8,0,0,1-80.128,233.872,867.953,867.953,0,0,1-517.692,446.748,885.3,885.3,0,0,1-267.322,35.62c-172.526-2.1-345.006-.731-517.645,0-20.015,0-27.029-6.238-27.029-26.23q.3-337.1-.411-674.2V887.393H83.267m490.593,3.381h-.48v371.4c0,26.5,3.77,32.147,30.022,29.908a576.177,576.177,0,0,0,112.527-15.857A397.03,397.03,0,0,0,969.154,732.437C899.7,578.076,775.677,497.354,604.956,491.619c-26.252-.891-31.051,4.707-31.051,31.987V890.82" transform="translate(1224.661 945.184)" fill="#fff"/>
    <path id="Path_13" data-name="Path 13" d="M354.794,337.717V517.211c0,27.417-1.714,29.04-29.954,29.063-88.308,0-176.638-.548-265.037.663-22.62.32-30.571-10.739-35.437-29.52a651.374,651.374,0,0,1-22.848-220.6C6.087,245.228,15.821,194,24.869,143.006a24.859,24.859,0,0,1,19.055-13.915c97.333-.868,194.711-.525,292.044-.594,16.519,0,18.872,10.281,18.827,23.6-.183,61.9,0,123.791,0,185.686" transform="translate(861.924 1501.873)" fill="#fff"/>
    <path id="Path_14" data-name="Path 14" d="M284.511,192.333c0,41.126-.571,82.116.251,123.151.366,18.278-7.151,24.79-24.7,24.722-75.147-.251-150.294.274-225.442,0-20.038,0-22.482-5.164-13.389-22.3A705.846,705.846,0,0,1,267.7,54.445c13.869-8.979,17-2.285,16.976,10.556V192.333Z" transform="translate(932.116 1160.913)" fill="#fff"/>
    <path id="Path_15" data-name="Path 15" d="M17.652,233.481a284.272,284.272,0,0,1,28.9-2.971c69.549,0,139.122.434,208.671,0,15.994,0,24.584,3.564,24.4,22-.685,73.73-.137,147.461-.548,221.192a167.129,167.129,0,0,1-4.752,27.783,109.285,109.285,0,0,1-24.7-11.653A1364.727,1364.727,0,0,1,118.663,377.606a1317.532,1317.532,0,0,1-98.91-133.615c-1.394-1.919-1.1-5.072-2.148-10.464" transform="translate(938.301 1946.866)" fill="#fff"/>
    <g id="Group_14" data-name="Group 14" transform="translate(2475.12 2363.267)">
      <g id="Group_34" data-name="Group 34">
        <path id="Path_3" data-name="Path 3" d="M1216.975,630.6Z" transform="translate(-1216.975 -630.6)" fill="#fff"/>
      </g>
    </g>
  </g>
</svg>
